PathFileType	4	(X/Y/Z)	/Users/niels/Desktop/University/Third Semester/Perception and Action/Exam/Gymnastics Motion Tracking/Code for Gym Tracking/Analyzed Data/Webcam_Backflip/id2_3_baseline_Sports2D/id2_3_baseline_Sports2D_px_person00.trc
DataRate	CameraRate	NumFrames	NumMarkers	Units	OrigDataRate	OrigDataStartFrame	OrigNumFrames
29.87551867219917	29.87551867219917	8	22	m	29.87551867219917	150	241
Frame#	Time	Hip			RHip			RKnee			RAnkle			RBigToe			RSmallToe			RHeel			LHip			LKnee			LAnkle			LBigToe			LSmallToe			LHeel			Neck			Head			Nose			RShoulder			RElbow			RWrist			LShoulder			LElbow			LWrist		
		X1	Y1	Z1	X2	Y2	Z2	X3	Y3	Z3	X4	Y4	Z4	X5	Y5	Z5	X6	Y6	Z6	X7	Y7	Z7	X8	Y8	Z8	X9	Y9	Z9	X10	Y10	Z10	X11	Y11	Z11	X12	Y12	Z12	X13	Y13	Z13	X14	Y14	Z14	X15	Y15	Z15	X16	Y16	Z16	X17	Y17	Z17	X18	Y18	Z18	X19	Y19	Z19	X20	Y20	Z20	X21	Y21	Z21	X22	Y22	Z22
150	5.020833333333333	0.7106494734694605	-0.5671043646430041	0.0	0.709435745018963	-0.5667338236373181	0.0	0.706363663591668	-0.6807428929348829	0.0	0.6857668913729209	-0.7992200765978489	0.0	0.7163900797211576	-0.8192191464635821	0.0	0.7102175035508395	-0.8236822783510875	0.0	0.6773609237002566	-0.8183369808748252	0.0	0.7164271960193619	-0.5667148880849959	0.0	0.7122166951596841	-0.6811960296515962	0.0	0.69375453790642	-0.7938409050264891	0.0	0.729627436073466	-0.8118272423124692	0.0	0.725076808004818	-0.8062333251918005	0.0	0.6828363833236011	-0.8075278355290426	0.0	0.7189217877565943	-0.4208650230263408	0.0	0.7403993024210911	-0.3408204356451145	0.0	0.7463222082512058	-0.3811299212203518	0.0	0.7105896467892835	-0.42499756399868516	0.0	0.7173429847188962	-0.3378914800276061	0.0	0.7336341028043848	-0.2854866623074095	0.0	0.7214930198480032	-0.4235423115198029	0.0	0.7440146373590248	-0.3472921107819336	0.0	0.7544032182831675	-0.2919153349042246	0.0
151	5.054305555555556	0.7106439603663003	-0.567350032737263	0.0	0.7087789892911465	-0.5670964313232921	0.0	0.7064912887220013	-0.6819356517768557	0.0	0.685053510971187	-0.8000200618186074	0.0	0.7170042562329737	-0.8196700608187564	0.0	0.7106719589968501	-0.8238543727124762	0.0	0.6761296699370377	-0.8186448248189242	0.0	0.7174799210545734	-0.5667985391365529	0.0	0.7128002200849693	-0.6824957078601271	0.0	0.6939893795415593	-0.7940639695722499	0.0	0.7309737085259567	-0.8118579225445904	0.0	0.726370527078001	-0.8063240800200748	0.0	0.6830025929585611	-0.8079894183476314	0.0	0.7177664209972024	-0.42253318806708556	0.0	0.7379281379232795	-0.3431852776935897	0.0	0.7452525051878501	-0.3832573928271487	0.0	0.7077388956565437	-0.42676763536202234	0.0	0.7156724552626332	-0.34919526397812695	0.0	0.7339175650867236	-0.2994261673466181	0.0	0.7232156443092849	-0.42648361851419603	0.0	0.7452431352161438	-0.3598904021823555	0.0	0.7573680530835931	-0.30771106272581766	0.0
152	5.087777777777778	0.7107340660090311	-0.5665244520866656	0.0	0.7078713103228966	-0.5662154087147792	0.0	0.7065871435683584	-0.6820079369668253	0.0	0.6844352161617119	-0.7998236974973593	0.0	0.7185172280915116	-0.8191768034657918	0.0	0.7117533662353918	-0.8229706344299746	0.0	0.6749136595803393	-0.817929376025828	0.0	0.7186671465205736	-0.5656268341639781	0.0	0.7137052964309393	-0.6824747526378548	0.0	0.6941783200869746	-0.7929808344153123	0.0	0.7327122723773067	-0.8108837741619039	0.0	0.7281158005785986	-0.805373623644306	0.0	0.6831132922989196	-0.8072079843196583	0.0	0.7166411260489493	-0.4222048623297652	0.0	0.7360487718655365	-0.3439250015528016	0.0	0.744577230061112	-0.3841371192472453	0.0	0.7048149303678696	-0.4270781537394578	0.0	0.7133074311699376	-0.3640477179544384	0.0	0.7352775670449	-0.3171204718360299	0.0	0.7249838093241859	-0.42808260495690875	0.0	0.745977584490896	-0.3753392631451135	0.0	0.7612274627332927	-0.3274644259425731	0.0
153	5.12125	0.7108606040636446	-0.564854218301384	0.0	0.7068969698062851	-0.5642945312274876	0.0	0.7066788735582938	-0.6809022030974216	0.0	0.6840651817312202	-0.798746280993563	0.0	0.7205173739756277	-0.8179725119464989	0.0	0.7131659361267536	-0.821310922018787	0.0	0.6739284833177078	-0.816404685203852	0.0	0.7196701522224527	-0.5634714851952992	0.0	0.7149735600889968	-0.6809189602974559	0.0	0.6942050726569541	-0.7906567533856971	0.0	0.7342415099093256	-0.809132975346502	0.0	0.7297184693854436	-0.8035914329096358	0.0	0.6829638257524138	-0.8053512460192835	0.0	0.7156353886421849	-0.41977289627550474	0.0	0.735414353397555	-0.3425495093192327	0.0	0.7445841423333983	-0.38359494664764104	0.0	0.7021810750658545	-0.4258958067555099	0.0	0.7099840841056935	-0.3827913509956719	0.0	0.7380662337773384	-0.33899708493497993	0.0	0.7259478473634505	-0.4281109597196271	0.0	0.7450304246205264	-0.39304822042329535	0.0	0.7652423328440681	-0.35078590746828964	0.0
154	5.154722222222222	0.7108895241895006	-0.56259926870056	0.0	0.7059342743998479	-0.5616426334728611	0.0	0.706812982360914	-0.6786887326687283	0.0	0.6839923793557676	-0.7970756376405087	0.0	0.7224528222316035	-0.8163433094244584	0.0	0.7144754487382877	-0.8191994154624971	0.0	0.6732415446652269	-0.8143372490627353	0.0	0.7203092105301211	-0.5607150248486772	0.0	0.7169226365552769	-0.6778152176302422	0.0	0.6941633955917518	-0.7872757248796249	0.0	0.7351682569276881	-0.8068335125605804	0.0	0.730820258437468	-0.8011813857445799	0.0	0.6826445900916502	-0.8026066326911347	0.0	0.7148569994021978	-0.41563705080839725	0.0	0.7361477852430589	-0.3391220842474063	0.0	0.7455084919276399	-0.38163202924485334	0.0	0.7000775288807575	-0.42344521179419853	0.0	0.7056164516192706	-0.40478289002247275	0.0	0.7423157783256247	-0.3648007567686535	0.0	0.7256214322182655	-0.42664707912679345	0.0	0.7414603404651839	-0.4120504988749728	0.0	0.7687020824654808	-0.3768603578702257	0.0
155	5.188194444444444	0.7107040278974228	-0.5601437846214707	0.0	0.7049307359696476	-0.5587873594965583	0.0	0.7069799271595097	-0.6757299740343217	0.0	0.6841473170970113	-0.7951848357449843	0.0	0.7239136156157311	-0.8145155703373893	0.0	0.7153118917045342	-0.816924543574718	0.0	0.6727755841920897	-0.8120117574654115	0.0	0.720586977292642	-0.5578919240384529	0.0	0.7200037482082571	-0.673544147556425	0.0	0.6943692951892677	-0.7831409970198846	0.0	0.7355590862066564	-0.8041321028019446	0.0	0.7315215697573644	-0.7983177544401435	0.0	0.6825537420311786	-0.7991497303798606	0.0	0.7143705417307324	-0.41070134441742157	0.0	0.7375640756847317	-0.3344877049478847	0.0	0.7473072243634282	-0.3785948700887052	0.0	0.6985365867208324	-0.4204354922447688	0.0	0.7005389074852485	-0.42820668415942065	0.0	0.7474636864712096	-0.3938463495392684	0.0	0.7240843987459606	-0.4242494214288191	0.0	0.7352324186320458	-0.4312939326816616	0.0	0.7711240568405993	-0.4048329406145436	0.0
156	5.221666666666667	0.7103026934546893	-0.5578938064065696	0.0	0.7038445581038163	-0.5563443049639645	0.0	0.707092117515052	-0.6726461740918793	0.0	0.6843813336622098	-0.7933892393894182	0.0	0.7247232631735272	-0.812664374040338	0.0	0.7154960096589265	-0.8147561228562984	0.0	0.6723780537590913	-0.8097062054983226	0.0	0.7206077147092117	-0.5555270829184599	0.0	0.7243313911704062	-0.6688532583042777	0.0	0.6951583780394301	-0.7786703178562059	0.0	0.7359070595723649	-0.801175576550193	0.0	0.7322510955750664	-0.7952294931747202	0.0	0.6831441009044825	-0.7952520071661954	0.0	0.7141425053872759	-0.4058892215446	0.0	0.7386532043710063	-0.3297482645291872	0.0	0.7494754161963115	-0.37501801335906015	0.0	0.6974471262361095	-0.41773315936054106	0.0	0.6956027014384398	-0.4504580033949682	0.0	0.7524582182820867	-0.42506810870411366	0.0	0.7218004082250112	-0.4216781660868963	0.0	0.7276491212812491	-0.44952100076749535	0.0	0.7721830493531393	-0.43371889289169674	0.0
157	5.255138888888889	0.7097972598208915	-0.5561372468081065	0.0	0.702751219254318	-0.5547587334538667	0.0	0.7070556972565022	-0.6700392009114506	0.0	0.6845258210844681	-0.7918425772983054	0.0	0.7248013747144024	-0.8109627922660759	0.0	0.7149387375746895	-0.8129245018606819	0.0	0.6719317152011204	-0.8076353152255269	0.0	0.720525832207508	-0.5539375444269716	0.0	0.7293558352229406	-0.6645778220867804	0.0	0.696714023372455	-0.7743884884259964	0.0	0.7368312344056421	-0.7982005958111321	0.0	0.7334889534295809	-0.792239845201968	0.0	0.6847699685536153	-0.7913590175511567	0.0	0.7140636241428785	-0.40179649441287374	0.0	0.7388188346680707	-0.3257418718163443	0.0	0.7512752357782666	-0.3714401048927786	0.0	0.6966862140927628	-0.41591798693804816	0.0	0.6918344820947071	-0.4691880966305762	0.0	0.7560149298251769	-0.457023225128295	0.0	0.7193276338669775	-0.41949713242204906	0.0	0.7208544831706799	-0.4652622249090059	0.0	0.7716655241179315	-0.46215273294414894	0.0
